<svg width="141" height="139" viewBox="0 0 141 139" fill="none" xmlns="http://www.w3.org/2000/svg">
<path d="M67.8398 53.9082C75.2493 49.0181 84.1625 46.2081 93.752 46.208C119.48 46.208 140.345 66.4318 140.345 92.7998C140.345 115.266 125.196 133.268 104.8 138.104V117.172C113.755 113.248 119.864 104.45 119.864 92.7998C119.864 76.7998 108.344 66.1758 93.752 66.1758C80.2764 66.1759 69.4218 75.2366 67.8398 89.2246V89.5996H67.8008C67.6961 90.6402 67.6406 91.7075 67.6406 92.7998C67.6407 104.318 73.6115 113.05 82.4004 117.038V138.032C62.1576 133.09 47.1602 115.155 47.1602 92.7998C47.1602 91.3009 47.2285 89.8218 47.3604 88.3652V19.7119H20.4805V89.5996H0V0H67.8398V53.9082Z" fill="#00ADC5"/>
</svg>
