<svg width="70" height="69" viewBox="0 0 70 69" fill="none" xmlns="http://www.w3.org/2000/svg">
<g clip-path="url(#clip0_3_4)">
<path d="M33.6793 26.7602C37.3578 24.3327 41.7828 22.9378 46.5435 22.9378C59.3163 22.9378 69.6748 32.9769 69.6748 46.0661C69.6748 57.2184 62.154 66.1546 52.0284 68.5552V58.1645C56.4741 56.2166 59.507 51.8493 59.507 46.0661C59.507 38.1236 53.7878 32.8499 46.5435 32.8499C39.8535 32.8499 34.4647 37.3477 33.6793 44.2914V44.4775H33.66C33.608 44.9941 33.5804 45.5239 33.5804 46.0661C33.5805 51.7838 36.5447 56.1184 40.908 58.098V68.5195C30.8584 66.0663 23.4129 57.1633 23.4129 46.0661C23.4129 45.322 23.4468 44.5878 23.5123 43.8647V9.78504H10.1676V44.4775H0V0H33.6793V26.7602Z" fill="white"/>
</g>
<defs>
<clipPath id="clip0_3_4">
<rect width="70" height="69" fill="white"/>
</clipPath>
</defs>
</svg>
